<svg width="128" height="128" viewBox="0 0 128 128" fill="none" xmlns="http://www.w3.org/2000/svg">
<g clip-path="url(#clip0_49_33)">
<path d="M24 32H8C3.58172 32 0 35.5817 0 40V120C0 124.418 3.58172 128 8 128H24C28.4183 128 32 124.418 32 120V40C32 35.5817 28.4183 32 24 32Z" fill="#2F3435"/>
<path d="M72 48H56C51.5817 48 48 51.5817 48 56V120C48 124.418 51.5817 128 56 128H72C76.4183 128 80 124.418 80 120V56C80 51.5817 76.4183 48 72 48Z" fill="#2F3435"/>
<path d="M120 0H104C99.5817 0 96 3.58172 96 8V120C96 124.418 99.5817 128 104 128H120C124.418 128 128 124.418 128 120V8C128 3.58172 124.418 0 120 0Z" fill="#2F3435"/>
</g>
<defs>
<clipPath id="clip0_49_33">
<rect width="128" height="128" fill="white"/>
</clipPath>
</defs>
</svg>
